%TF.GenerationSoftware,KiCad,Pcbnew,4.0.7*%
%TF.CreationDate,2017-09-24T07:07:02-05:00*%
%TF.ProjectId,USB_Port_Tester,5553425F506F72745F5465737465722E,1.0*%
%TF.FileFunction,Legend,Top*%
%FSLAX46Y46*%
G04 Gerber Fmt 4.6, Leading zero omitted, Abs format (unit mm)*
G04 Created by KiCad (PCBNEW 4.0.7) date 09/24/17 07:07:02*
%MOMM*%
%LPD*%
G01*
G04 APERTURE LIST*
%ADD10C,0.127000*%
%ADD11C,0.120000*%
%ADD12C,0.150000*%
G04 APERTURE END LIST*
D10*
X155949715Y-102877943D02*
X156035429Y-102906514D01*
X156064001Y-102935086D01*
X156092572Y-102992229D01*
X156092572Y-103077943D01*
X156064001Y-103135086D01*
X156035429Y-103163657D01*
X155978287Y-103192229D01*
X155749715Y-103192229D01*
X155749715Y-102592229D01*
X155949715Y-102592229D01*
X156006858Y-102620800D01*
X156035429Y-102649371D01*
X156064001Y-102706514D01*
X156064001Y-102763657D01*
X156035429Y-102820800D01*
X156006858Y-102849371D01*
X155949715Y-102877943D01*
X155749715Y-102877943D01*
X156635429Y-103192229D02*
X156349715Y-103192229D01*
X156349715Y-102592229D01*
X156835429Y-102592229D02*
X156835429Y-103077943D01*
X156864001Y-103135086D01*
X156892572Y-103163657D01*
X156949715Y-103192229D01*
X157064001Y-103192229D01*
X157121143Y-103163657D01*
X157149715Y-103135086D01*
X157178286Y-103077943D01*
X157178286Y-102592229D01*
X156129086Y-107459429D02*
X155929086Y-107173714D01*
X155786229Y-107459429D02*
X155786229Y-106859429D01*
X156014801Y-106859429D01*
X156071943Y-106888000D01*
X156100515Y-106916571D01*
X156129086Y-106973714D01*
X156129086Y-107059429D01*
X156100515Y-107116571D01*
X156071943Y-107145143D01*
X156014801Y-107173714D01*
X155786229Y-107173714D01*
X156386229Y-107145143D02*
X156586229Y-107145143D01*
X156671943Y-107459429D02*
X156386229Y-107459429D01*
X156386229Y-106859429D01*
X156671943Y-106859429D01*
X156929086Y-107459429D02*
X156929086Y-106859429D01*
X157071943Y-106859429D01*
X157157658Y-106888000D01*
X157214800Y-106945143D01*
X157243372Y-107002286D01*
X157271943Y-107116571D01*
X157271943Y-107202286D01*
X157243372Y-107316571D01*
X157214800Y-107373714D01*
X157157658Y-107430857D01*
X157071943Y-107459429D01*
X156929086Y-107459429D01*
X156108458Y-111206000D02*
X156051315Y-111177429D01*
X155965601Y-111177429D01*
X155879886Y-111206000D01*
X155822744Y-111263143D01*
X155794172Y-111320286D01*
X155765601Y-111434571D01*
X155765601Y-111520286D01*
X155794172Y-111634571D01*
X155822744Y-111691714D01*
X155879886Y-111748857D01*
X155965601Y-111777429D01*
X156022744Y-111777429D01*
X156108458Y-111748857D01*
X156137029Y-111720286D01*
X156137029Y-111520286D01*
X156022744Y-111520286D01*
X156737029Y-111777429D02*
X156537029Y-111491714D01*
X156394172Y-111777429D02*
X156394172Y-111177429D01*
X156622744Y-111177429D01*
X156679886Y-111206000D01*
X156708458Y-111234571D01*
X156737029Y-111291714D01*
X156737029Y-111377429D01*
X156708458Y-111434571D01*
X156679886Y-111463143D01*
X156622744Y-111491714D01*
X156394172Y-111491714D01*
X156994172Y-111777429D02*
X156994172Y-111177429D01*
X157337029Y-111777429D01*
X157337029Y-111177429D01*
X152958800Y-111912400D02*
X152450800Y-111404400D01*
X152958800Y-110896400D02*
X152958800Y-111912400D01*
X152450800Y-111404400D02*
X152958800Y-110896400D01*
X152400000Y-110998000D02*
X152400000Y-111810800D01*
X153009600Y-107594400D02*
X152552400Y-107137200D01*
X153009600Y-106629200D02*
X153009600Y-107594400D01*
X152400000Y-107238800D02*
X153009600Y-106629200D01*
X152400000Y-106730800D02*
X152400000Y-107543600D01*
X152958800Y-103378000D02*
X152501600Y-102920800D01*
X152958800Y-102412800D02*
X152958800Y-103378000D01*
X152400000Y-102971600D02*
X152958800Y-102412800D01*
X152400000Y-103327200D02*
X152400000Y-102920800D01*
X152400000Y-102514400D02*
X152400000Y-103327200D01*
D11*
X150357000Y-102071000D02*
X150357000Y-103771000D01*
X150407000Y-103771000D02*
X154457000Y-103771000D01*
X150407000Y-102071000D02*
X154457000Y-102071000D01*
X150357000Y-106287000D02*
X150357000Y-107987000D01*
X150407000Y-107987000D02*
X154457000Y-107987000D01*
X150407000Y-106287000D02*
X154457000Y-106287000D01*
X150357000Y-110554000D02*
X150357000Y-112254000D01*
X150407000Y-112254000D02*
X154457000Y-112254000D01*
X150407000Y-110554000D02*
X154457000Y-110554000D01*
D12*
X146620000Y-101290000D02*
X135620000Y-101290000D01*
X135620000Y-113290000D02*
X146620000Y-113290000D01*
X134620000Y-102290000D02*
X134620000Y-112290000D01*
X134620000Y-112290000D02*
G75*
G03X135620000Y-113290000I1000000J0D01*
G01*
X135620000Y-101290000D02*
G75*
G03X134620000Y-102290000I0J-1000000D01*
G01*
X143270000Y-102440000D02*
X136120000Y-102440000D01*
X136120000Y-112140000D02*
X143270000Y-112140000D01*
X146620000Y-113290000D02*
X146620000Y-101290000D01*
M02*
